<svg width="100" height="22" viewBox="0 0 100 22" fill="none" xmlns="http://www.w3.org/2000/svg">
<g clip-path="url(#clip0_309_634)">
<path d="M71.6785 5.47877C72.794 5.7611 73.2688 6.02143 74.1199 6.79143C75.6103 8.16863 76.1629 10.175 75.6214 12.2577C75.0029 14.6652 72.8162 16.2595 70.2096 16.2162C69.8409 16.2092 69.4727 16.1874 69.1059 16.151C68.5644 16.0644 67.6251 15.6743 67.051 15.2944C64.2347 13.4508 63.8585 9.24223 66.2999 6.87797C67.0469 6.1407 67.9951 5.63552 69.0281 5.4245C70.0444 5.21917 70.6733 5.22943 71.6785 5.47877ZM48.4629 5.47877L49.3688 5.51103L50.274 5.54403L50.3073 8.58077C50.3518 13.0174 50.1636 14.0038 49.0592 15.0884C48.2533 15.8694 47.5347 16.1407 46.077 16.184C45.4696 16.206 44.8177 16.173 44.6192 16.1297C42.9844 15.7176 41.8688 14.4592 41.5933 12.7344C41.5377 12.3552 41.5044 10.5872 41.5155 8.79783L41.5488 5.54403H43.3162L43.371 9.17697C43.4266 12.7886 43.4266 12.8106 43.7029 13.3533C44.5422 15.0018 47.2147 15.0121 48.0985 13.3753L48.3962 12.8106L48.4629 5.47877ZM34.8555 5.48977L35.077 6.0647C35.1985 6.3683 35.6955 7.6487 36.1925 8.90637C36.6888 10.164 37.2303 11.5522 37.4073 11.9974C37.5725 12.4418 37.9925 13.5051 38.3347 14.3514C38.677 15.1969 38.9533 15.9236 38.9533 15.9559C38.9533 15.9889 38.534 16.0102 38.0259 16.0102C37.1199 16.0102 37.0977 15.9992 36.9873 15.7168C36.9207 15.5438 36.2585 13.852 35.5296 11.9431C33.8288 7.51817 33.8399 7.55043 33.6962 7.55043C33.6296 7.55043 33.5303 7.71323 33.4644 7.9083C33.3977 8.09237 32.934 9.3075 32.437 10.5872C31.9407 11.8668 31.2666 13.6026 30.9459 14.4372L30.3718 15.9559L29.477 15.9889C28.7147 16.0109 28.571 15.9889 28.571 15.8474C28.571 15.6523 32.4259 5.82563 32.5807 5.63057C32.6473 5.53303 33.0333 5.48977 33.7733 5.48977H34.8555ZM56.371 5.48977C59.231 5.48977 59.8718 5.5873 60.6896 6.17323C60.9762 6.37857 61.3192 6.76943 61.5177 7.10603C61.8051 7.6157 61.871 7.84303 61.9044 8.62403C61.937 9.38303 61.9044 9.66537 61.7162 10.175C61.4185 10.923 60.7444 11.5742 59.9496 11.8566C59.6399 11.9644 59.3866 12.0729 59.3866 12.1059C59.3866 12.1382 60.0377 12.9734 60.8222 13.9715C61.617 14.9688 62.2577 15.8261 62.2577 15.8906C62.2577 16.0534 60.6896 16.0424 60.3466 15.8906C60.1925 15.8261 59.4303 14.9476 58.6577 13.9385L57.2325 12.1169L56.437 12.1059H55.631V16.0102H53.8636L53.8859 13.3313L53.9192 10.6414L56.4592 10.5872C58.2925 10.5439 59.077 10.4896 59.2866 10.3818C60.0925 9.97997 60.4244 8.72157 59.9162 7.99483C59.4081 7.24683 59.1429 7.18157 56.7681 7.1163L54.637 7.06203L54.2947 6.72617C54.0758 6.51858 53.9354 6.2429 53.897 5.94517L53.8303 5.48977H56.371ZM81.0673 5.51177C83.6955 5.54403 83.8829 5.55503 84.4022 5.79337C85.5725 6.32503 86.2022 7.2681 86.2799 8.59177C86.3681 10.2616 85.6503 11.4114 84.2148 11.8778C83.9822 11.9541 83.7948 12.0626 83.7948 12.1169C83.7948 12.1704 84.4244 13.0057 85.1866 13.9715C85.9481 14.9366 86.5999 15.7931 86.6333 15.8804C86.7222 16.0967 84.7999 16.0212 84.5125 15.7931C84.4022 15.7066 83.6955 14.839 82.9333 13.8732L81.5636 12.1059H80.8125C80.2273 12.1059 80.0503 12.1492 79.9955 12.279C79.9622 12.3765 79.9288 13.255 79.9288 14.2318V16.0102H78.1622V13.4728C78.1622 12.0729 78.1948 10.8585 78.2288 10.761C78.2836 10.6092 78.6147 10.5872 80.691 10.5872C83.3748 10.5872 83.7503 10.5006 84.2473 9.81717C84.6007 9.3295 84.6007 8.3857 84.2585 7.9083C83.8059 7.2901 83.4081 7.1823 81.1436 7.1163C79.4762 7.07303 79.0348 7.02977 78.8029 6.87797C78.4488 6.65063 78.1288 5.98843 78.2177 5.69583C78.2948 5.47877 78.3496 5.47877 81.0666 5.51103L81.0673 5.51177ZM95.7451 5.54403L96.3748 7.1163C96.7061 7.92836 97.0337 8.74188 97.3577 9.55683C97.5451 10.0335 98.1748 11.6395 98.7488 13.1142C99.334 14.5897 99.8096 15.8474 99.8096 15.9016C99.8096 15.9669 99.4118 16.0102 98.8925 16.0102H97.9874L97.1696 13.8732C95.4362 9.35077 94.7399 7.6047 94.6407 7.57243C94.5414 7.53943 94.2985 8.10337 93.1385 11.0756C92.9399 11.6182 92.4318 12.8972 92.034 13.9282C91.6362 14.9476 91.3051 15.8474 91.3051 15.9016C91.3051 15.9669 90.9185 16.0102 90.3666 16.0102C89.8251 16.0102 89.4273 15.9662 89.4273 15.9016C89.4273 15.8261 92.2881 8.49423 93.2822 6.0317L93.4696 5.54403H95.7451ZM70.1985 7.00777C67.5814 7.00777 65.8696 9.42703 66.6755 12.0084C66.8851 12.6911 67.0066 12.8869 67.6029 13.4721C68.1659 14.0258 68.4207 14.1878 69.0059 14.3726C69.4834 14.5304 69.9877 14.5934 70.4899 14.5581C70.9921 14.5227 71.4823 14.3897 71.9325 14.1666C74.0088 13.1692 74.6718 10.5219 73.3577 8.55877C72.6725 7.53943 71.5903 7.00777 70.1985 7.00777Z" fill="white"/>
<path d="M11.111 1.6808C11.5697 1.67936 12.0196 1.80506 12.4099 2.04365C12.8001 2.28225 13.1151 2.62422 13.3192 3.03087L20.2636 16.7809C20.4521 17.1535 20.5411 17.5677 20.5224 17.9841C20.5036 18.4004 20.3775 18.8051 20.1563 19.1597C19.935 19.5142 19.6258 19.8069 19.2582 20.0098C18.8905 20.2128 18.4765 20.3193 18.0555 20.3192H4.16659C3.74568 20.3191 3.33177 20.2126 2.96418 20.0096C2.59658 19.8066 2.28752 19.5139 2.06634 19.1594C1.84516 18.8048 1.71921 18.4002 1.70046 17.9839C1.6817 17.5676 1.77077 17.1535 1.95919 16.7809L8.90289 3.03087C9.10698 2.62422 9.42198 2.28225 9.81222 2.04365C10.2025 1.80506 10.6524 1.67936 11.111 1.6808ZM11.111 2.03802e-08C10.3374 -7.61033e-05 9.57895 0.213101 8.92075 0.615651C8.26255 1.0182 7.73056 1.59423 7.38437 2.2792L0.439926 16.0292C0.122059 16.6581 -0.0281084 17.3571 0.00368849 18.0596C0.0354854 18.7622 0.248191 19.4451 0.6216 20.0433C0.995008 20.6416 1.51672 21.1354 2.13717 21.4779C2.75763 21.8203 3.45622 22.0001 4.16659 22H18.0555C18.7658 21.9999 19.4643 21.8201 20.0846 21.4776C20.705 21.1351 21.2266 20.6413 21.5999 20.043C21.9733 19.4448 22.1859 18.762 22.2177 18.0595C22.2494 17.357 22.0992 16.6581 21.7814 16.0292L14.8377 2.2792C14.4915 1.59423 13.9595 1.0182 13.3013 0.615651C12.6431 0.213101 11.8847 -7.61033e-05 11.111 2.03802e-08Z" fill="white"/>
</g>
<defs>
<clipPath id="clip0_309_634">
<rect width="100" height="22" fill="white"/>
</clipPath>
</defs>
</svg>
