<svg width="560" height="560" viewBox="0 0 560 560" fill="none" xmlns="http://www.w3.org/2000/svg">
<rect width="560" height="560" rx="280" fill="#0E0E0E"/>
<rect width="560" height="560" rx="280" fill="url(#paint0_radial_273_87)" fill-opacity="0.3"/>
<path d="M78.6339 329.181V240.692H61.6V230.453H109.22V240.692H92.6838V329.181H78.6339Z" fill="white"/>
<path d="M118.929 329.181V230.453H132.979V273.114H158.841V230.453H172.891V329.181H158.841V282.986H132.979V329.181H118.929Z" fill="white"/>
<path d="M188.625 329.181V230.453H227.666V240.692H202.675V273.357H222.942V283.108H202.675V319.308H227.915V329.181H188.625Z" fill="white"/>
<path d="M291.667 330.4C285.367 330.4 280.311 329.1 276.498 326.5C272.768 323.818 270.033 319.958 268.292 314.921C266.634 309.883 265.805 303.829 265.805 296.759V263.728C265.805 256.496 266.551 250.361 268.043 245.323C269.618 240.204 272.354 236.304 276.25 233.622C280.228 230.941 285.74 229.6 292.786 229.6C299.086 229.6 304.142 230.656 307.955 232.769C311.851 234.801 314.669 237.97 316.41 242.276C318.151 246.502 319.021 251.865 319.021 258.365V262.022H305.841V258.975C305.841 254.668 305.551 251.174 304.971 248.492C304.391 245.73 303.189 243.698 301.365 242.398C299.625 241.017 296.848 240.326 293.035 240.326C288.89 240.326 285.865 241.261 283.958 243.129C282.135 244.998 280.974 247.558 280.477 250.808C280.062 253.977 279.855 257.593 279.855 261.656V298.222C279.855 302.935 280.187 306.876 280.85 310.045C281.596 313.214 282.964 315.571 284.953 317.114C286.942 318.658 289.761 319.43 293.408 319.43C297.055 319.43 299.873 318.577 301.863 316.871C303.852 315.164 305.22 312.645 305.966 309.314C306.712 305.982 307.085 301.838 307.085 296.881V290.056H294.278V280.305H319.767V329.181H310.939L309.571 317.846C308.245 321.502 306.173 324.509 303.355 326.865C300.536 329.222 296.641 330.4 291.667 330.4Z" fill="white"/>
<path d="M334.209 329.181V230.453H373.251V240.692H348.259V273.357H368.526V283.108H348.259V319.308H373.499V329.181H334.209Z" fill="white"/>
<path d="M384.842 329.181V230.453H394.416L423.013 296.028V230.453H434.7V329.181H425.748L396.778 261.778V329.181H384.842Z" fill="white"/>
<path d="M474.279 330.278C468.477 330.278 463.628 329.059 459.732 326.622C455.919 324.184 453.018 320.812 451.028 316.505C449.039 312.198 447.878 307.201 447.547 301.513L459.98 298.222C460.229 301.716 460.768 305.088 461.597 308.339C462.509 311.589 463.959 314.27 465.948 316.383C467.938 318.415 470.715 319.43 474.279 319.43C477.926 319.43 480.661 318.455 482.485 316.505C484.392 314.474 485.345 311.589 485.345 307.851C485.345 303.382 484.309 299.807 482.236 297.125C480.164 294.362 477.553 291.6 474.403 288.837L457.494 274.21C454.178 271.366 451.733 268.279 450.158 264.947C448.583 261.534 447.795 257.35 447.795 252.393C447.795 245.161 449.909 239.554 454.137 235.573C458.364 231.591 464.125 229.6 471.419 229.6C475.398 229.6 478.879 230.128 481.863 231.185C484.93 232.16 487.458 233.704 489.448 235.816C491.52 237.929 493.136 240.61 494.297 243.861C495.54 247.03 496.369 250.768 496.784 255.074L484.847 258.243C484.599 254.993 484.101 252.027 483.355 249.346C482.609 246.583 481.283 244.389 479.377 242.764C477.553 241.057 474.901 240.204 471.419 240.204C467.938 240.204 465.202 241.139 463.213 243.008C461.307 244.795 460.353 247.477 460.353 251.052C460.353 254.059 460.851 256.537 461.845 258.487C462.923 260.437 464.622 262.428 466.943 264.46L483.977 279.086C487.79 282.336 491.147 286.237 494.048 290.787C496.949 295.256 498.4 300.579 498.4 306.754C498.4 311.63 497.364 315.855 495.292 319.43C493.219 322.924 490.36 325.606 486.712 327.475C483.148 329.344 479.004 330.278 474.279 330.278Z" fill="white"/>
<defs>
<radialGradient id="paint0_radial_273_87" cx="0" cy="0" r="1" gradientUnits="userSpaceOnUse" gradientTransform="translate(280 280) rotate(90) scale(280)">
<stop offset="0.0729167" stop-color="white"/>
<stop offset="0.703125" stop-color="white" stop-opacity="0"/>
<stop offset="1" stop-color="white" stop-opacity="0"/>
</radialGradient>
</defs>
</svg>
