<svg width="85" height="21" viewBox="0 0 85 21" fill="none" xmlns="http://www.w3.org/2000/svg">
<path d="M3.648 20V2.576H0.36V0.559999H9.552V2.576H6.36V20H3.648ZM11.4261 20V0.559999H14.1381V8.96H19.1301V0.559999H21.8421V20H19.1301V10.904H14.1381V20H11.4261ZM24.8792 20V0.559999H32.4152V2.576H27.5912V9.008H31.5032V10.928H27.5912V18.056H32.4632V20H24.8792ZM44.769 20.24C43.553 20.24 42.577 19.984 41.841 19.472C41.121 18.944 40.593 18.184 40.257 17.192C39.937 16.2 39.777 15.008 39.777 13.616V7.112C39.777 5.688 39.921 4.48 40.209 3.488C40.513 2.48 41.041 1.712 41.793 1.184C42.561 0.655999 43.625 0.391999 44.985 0.391999C46.201 0.391999 47.177 0.599999 47.913 1.016C48.665 1.416 49.209 2.04 49.545 2.888C49.881 3.72 50.049 4.776 50.049 6.056V6.776H47.505V6.176C47.505 5.328 47.449 4.64 47.337 4.112C47.225 3.568 46.993 3.168 46.641 2.912C46.305 2.64 45.769 2.504 45.033 2.504C44.233 2.504 43.649 2.688 43.281 3.056C42.929 3.424 42.705 3.928 42.609 4.568C42.529 5.192 42.489 5.904 42.489 6.704V13.904C42.489 14.832 42.553 15.608 42.681 16.232C42.825 16.856 43.089 17.32 43.473 17.624C43.857 17.928 44.401 18.08 45.105 18.08C45.809 18.08 46.353 17.912 46.737 17.576C47.121 17.24 47.385 16.744 47.529 16.088C47.673 15.432 47.745 14.616 47.745 13.64V12.296H45.273V10.376H50.193V20H48.489L48.225 17.768C47.969 18.488 47.569 19.08 47.025 19.544C46.481 20.008 45.729 20.24 44.769 20.24ZM52.9808 20V0.559999H60.5168V2.576H55.6928V9.008H59.6048V10.928H55.6928V18.056H60.5648V20H52.9808ZM62.7542 20V0.559999H64.6022L70.1222 13.472V0.559999H72.3782V20H70.6502L65.0582 6.728V20H62.7542ZM80.0179 20.216C78.8979 20.216 77.9619 19.976 77.2099 19.496C76.4739 19.016 75.9139 18.352 75.5299 17.504C75.1459 16.656 74.9219 15.672 74.8579 14.552L77.2579 13.904C77.3059 14.592 77.4099 15.256 77.5699 15.896C77.7459 16.536 78.0259 17.064 78.4099 17.48C78.7939 17.88 79.3299 18.08 80.0179 18.08C80.7219 18.08 81.2499 17.888 81.6019 17.504C81.9699 17.104 82.1539 16.536 82.1539 15.8C82.1539 14.92 81.9539 14.216 81.5539 13.688C81.1539 13.144 80.6499 12.6 80.0419 12.056L76.7779 9.176C76.1379 8.616 75.6659 8.008 75.3619 7.352C75.0579 6.68 74.9059 5.856 74.9059 4.88C74.9059 3.456 75.3139 2.352 76.1299 1.568C76.9459 0.783999 78.0579 0.391999 79.4659 0.391999C80.2339 0.391999 80.9059 0.495999 81.4819 0.704C82.0739 0.895999 82.5619 1.2 82.9459 1.616C83.3459 2.032 83.6579 2.56 83.8819 3.2C84.1219 3.824 84.2819 4.56 84.3619 5.408L82.0579 6.032C82.0099 5.392 81.9139 4.808 81.7699 4.28C81.6259 3.736 81.3699 3.304 81.0019 2.984C80.6499 2.648 80.1379 2.48 79.4659 2.48C78.7939 2.48 78.2659 2.664 77.8819 3.032C77.5139 3.384 77.3299 3.912 77.3299 4.616C77.3299 5.208 77.4259 5.696 77.6179 6.08C77.8259 6.464 78.1539 6.856 78.6019 7.256L81.8899 10.136C82.6259 10.776 83.2739 11.544 83.8339 12.44C84.3939 13.32 84.6739 14.368 84.6739 15.584C84.6739 16.544 84.4739 17.376 84.0739 18.08C83.6739 18.768 83.1219 19.296 82.4179 19.664C81.7299 20.032 80.9299 20.216 80.0179 20.216Z" fill="white"/>
</svg>
